<svg width="1024" height="1024" viewBox="0 0 1024 1024" fill="none" xmlns="http://www.w3.org/2000/svg">
  <rect x="96" y="96" width="832" height="832" rx="200" fill="#0F172A"/>
  <rect x="160" y="160" width="704" height="704" rx="160" fill="#132238"/>
  <rect x="224" y="224" width="576" height="576" rx="104" fill="#0B1220"/>
  <rect x="284" y="308" width="456" height="408" rx="52" fill="#101C30" stroke="#314B6B" stroke-width="24"/>
  <rect x="318" y="342" width="388" height="64" rx="24" fill="#1C2D48"/>
  <circle cx="366" cy="374" r="14" fill="#F59E0B"/>
  <circle cx="410" cy="374" r="14" fill="#38BDF8"/>
  <circle cx="454" cy="374" r="14" fill="#22C55E"/>
  <rect x="336" y="442" width="156" height="210" rx="28" fill="#17304E"/>
  <rect x="532" y="442" width="156" height="210" rx="28" fill="#142841"/>
  <path d="M378 490L442 544L378 598" stroke="#7DD3FC" stroke-width="34" stroke-linecap="round" stroke-linejoin="round"/>
  <path d="M566 516H652" stroke="#86EFAC" stroke-width="34" stroke-linecap="round"/>
  <path d="M566 574H626" stroke="#38BDF8" stroke-width="34" stroke-linecap="round"/>
  <rect x="336" y="696" width="352" height="24" rx="12" fill="#314B6B"/>
</svg>
